# xmcd
#
# Track frame offsets: 
#        150
#        15553
#        39598
#        55462
#        73570
#        90479
#        111358
#        125119
#        144699
#        163157
#        180062
#
# Disc length: 2570 seconds
#
# Revision: 0
# Processed by: cddbd v1.5.2PL0 Copyright (c) Steve Scherf et al.
# Submitted via: ExactAudioCopyFreeDBPlugin 1.0
#
DISCID=960a080b
DTITLE=Jerry Schmitt - 100 Miles
DYEAR=2008
DGENRE=Country
TTITLE0=Ain't No News on the Jukebox
TTITLE1=With a Bottle and a Can
TTITLE2=If You Should Ever Go
TTITLE3=Drink Until I Drop
TTITLE4=I Don't Hurt as Much as I Use To
TTITLE5=Last One on My Mind
TTITLE6=Fool for You
TTITLE7=If You Only Knew
TTITLE8=Try Hard to Hold Things Together
TTITLE9=Woman of His Dreams
TTITLE10=100 Miles
EXTD=
EXTT0=
EXTT1=
EXTT2=
EXTT3=
EXTT4=
EXTT5=
EXTT6=
EXTT7=
EXTT8=
EXTT9=
EXTT10=
PLAYORDER=
